<svg xmlns="http://www.w3.org/2000/svg" id="katman_1" enable-background="new 0 0 1080 1080" version="1.1" viewBox="0 0 1080 1080"><path id="path3" d="M 1067.406 526.896 L 1022.451 499.108 C 1022.144 494.732 1021.633 490.373 1021.226 486.029 L 1059.741 450.043 C 1063.725 446.387 1065.465 440.972 1064.442 435.731 C 1063.319 430.47 1059.642 426.136 1054.633 424.267 L 1005.389 405.827 C 1004.06 401.554 1002.835 397.314 1001.506 393.095 L 1032.259 350.368 C 1035.425 346.027 1036.041 340.376 1033.996 335.423 C 1031.952 330.487 1027.457 326.951 1022.144 326.084 L 970.14 317.625 C 968.198 313.679 966.054 309.797 963.91 305.947 L 985.774 257.976 C 988.02 253.094 987.611 247.415 984.547 242.979 C 981.582 238.525 976.578 235.92 971.163 236.124 L 918.444 237.963 C 915.685 234.551 912.926 231.17 910.065 227.849 L 922.223 176.437 C 923.449 171.217 921.917 165.75 918.136 161.96 C 914.355 158.18 908.838 156.616 903.629 157.843 L 852.236 169.961 C 848.866 167.139 845.493 164.35 842.123 161.622 L 843.962 108.841 C 844.166 103.499 841.51 98.423 837.117 95.456 C 832.622 92.475 827.002 92.026 822.098 94.241 L 774.139 116.107 C 770.267 113.981 766.385 111.876 762.461 109.842 L 753.983 57.83 C 753.124 52.557 749.589 48.081 744.642 46.036 C 739.71 43.986 734.048 44.649 729.704 47.774 L 686.949 78.538 C 682.739 77.2 678.509 75.914 674.238 74.688 L 655.799 25.358 C 653.927 20.332 649.596 16.644 644.334 15.604 C 639.08 14.57 633.679 16.318 630.029 20.22 L 594.046 58.83 C 589.705 58.348 585.332 57.909 580.969 57.554 L 553.178 12.65 C 550.37 8.103 545.394 5.336 540.041 5.336 C 534.687 5.336 529.711 8.103 526.912 12.65 L 499.121 57.554 C 494.75 57.909 490.374 58.348 486.035 58.83 L 450.04 20.22 C 446.391 16.318 440.976 14.57 435.737 15.604 C 430.474 16.654 426.143 20.332 424.272 25.358 L 405.831 74.688 C 401.56 75.914 397.331 77.211 393.112 78.538 L 350.363 47.774 C 346.022 44.638 340.36 43.974 335.416 46.036 C 330.481 48.081 326.936 52.557 326.079 57.83 L 317.596 109.842 C 313.674 111.876 309.792 113.971 305.92 116.107 L 257.961 94.241 C 253.09 92.016 247.408 92.475 242.975 95.456 C 238.519 98.423 235.913 103.499 236.118 108.841 L 237.958 161.622 C 234.545 164.35 231.162 167.139 227.823 169.961 L 176.423 157.843 C 171.199 156.626 165.723 158.18 161.944 161.96 C 158.143 165.75 156.599 171.217 157.825 176.437 L 169.933 227.849 C 167.123 231.18 164.345 234.551 161.616 237.963 L 108.835 236.124 C 103.513 235.97 98.424 238.525 95.452 242.979 C 92.469 247.415 92.02 253.094 94.236 257.976 L 116.101 305.947 C 113.976 309.797 111.872 313.679 109.839 317.625 L 57.833 326.084 C 52.552 326.942 48.098 330.477 46.043 335.423 C 43.999 340.376 44.664 346.027 47.78 350.368 L 78.543 393.095 C 77.205 397.314 75.907 401.554 74.68 405.827 L 25.354 424.267 C 20.348 426.136 16.659 430.47 15.617 435.731 C 14.575 440.982 16.323 446.387 20.236 450.043 L 58.826 486.029 C 58.344 490.373 57.913 494.745 57.549 499.108 L 12.655 526.896 C 8.11 529.706 5.34 534.672 5.34 540.035 C 5.34 545.399 8.11 550.365 12.655 553.164 L 57.549 580.954 C 57.913 585.328 58.344 589.691 58.826 594.032 L 20.236 630.026 C 16.323 633.673 14.575 639.089 15.617 644.328 C 16.659 649.592 20.348 653.914 25.354 655.794 L 74.68 674.235 C 75.907 678.506 77.205 682.745 78.543 686.964 L 47.78 729.702 C 44.654 734.055 43.992 739.704 46.043 744.639 C 48.098 749.593 52.561 753.128 57.843 753.978 L 109.839 762.434 C 111.872 766.38 113.956 770.263 116.101 774.135 L 94.236 822.083 C 92.011 826.905 92.469 832.626 95.452 837.124 C 98.436 841.517 103.513 844.172 108.835 843.967 L 161.596 842.127 C 164.345 845.499 167.114 848.871 169.933 852.242 L 157.825 903.635 C 156.599 908.846 158.143 914.261 161.944 918.039 C 165.715 921.922 171.199 923.454 176.423 922.229 L 227.823 910.071 C 231.162 912.932 234.545 915.69 237.958 918.449 L 236.118 971.168 C 235.913 976.584 238.519 981.588 242.975 984.552 C 247.408 987.514 253.09 988.028 257.961 985.777 L 305.92 963.913 C 309.782 966.059 313.663 968.205 317.596 970.147 L 326.079 1022.15 C 326.936 1027.462 330.472 1031.957 335.416 1034.001 C 340.352 1036.046 346.022 1035.328 350.363 1032.266 L 393.089 1001.513 C 397.311 1002.84 401.55 1004.066 405.821 1005.293 L 424.263 1054.639 C 426.133 1059.646 430.465 1063.324 435.726 1064.345 C 440.976 1065.469 446.381 1063.732 450.028 1059.749 L 486.023 1021.126 C 490.367 1021.637 494.739 1022.049 499.11 1022.457 L 526.901 1067.411 C 529.701 1071.906 534.676 1074.664 540.029 1074.664 C 545.383 1074.664 550.359 1071.906 553.17 1067.411 L 580.959 1022.457 C 585.332 1022.049 589.693 1021.637 594.036 1021.126 L 630.022 1059.749 C 633.667 1063.732 639.08 1065.469 644.323 1064.345 C 649.583 1063.324 653.918 1059.646 655.786 1054.639 L 674.227 1005.293 C 678.499 1004.066 682.739 1002.84 686.959 1001.513 L 729.696 1032.266 C 734.039 1035.328 739.698 1036.046 744.633 1034.001 C 749.576 1031.957 753.114 1027.462 753.97 1022.15 L 762.452 970.147 C 766.374 968.205 770.256 966.059 774.13 963.913 L 822.087 985.777 C 827.002 988.028 832.622 987.514 837.117 984.552 C 841.51 981.588 844.166 976.584 843.962 971.168 L 842.123 918.449 C 845.493 915.69 848.866 912.932 852.236 910.071 L 903.629 922.229 C 908.838 923.454 914.355 921.922 918.035 918.039 C 921.917 914.261 923.449 908.846 922.223 903.635 L 910.065 852.242 C 912.926 848.871 915.685 845.499 918.444 842.127 L 971.163 843.967 C 976.476 844.172 981.582 841.517 984.547 837.124 C 987.508 832.626 988.02 826.905 985.774 822.083 L 963.91 774.135 C 966.054 770.263 968.198 766.38 970.14 762.434 L 1022.144 753.978 C 1027.457 753.128 1031.952 749.593 1033.996 744.639 C 1036.041 739.704 1035.326 734.055 1032.259 729.702 L 1001.506 686.964 C 1002.835 682.745 1004.06 678.506 1005.286 674.235 L 1054.633 655.794 C 1059.642 653.914 1063.319 649.592 1064.342 644.328 C 1065.465 639.077 1063.725 633.673 1059.741 630.026 L 1021.226 594.032 C 1021.633 589.691 1022.044 585.318 1022.451 580.954 L 1067.406 553.164 C 1071.903 550.365 1074.66 545.389 1074.66 540.035 C 1074.66 534.682 1071.903 529.706 1067.406 526.896 Z M 766.905 899.342 C 749.761 895.664 738.861 878.707 742.539 861.54 C 746.207 844.375 763.096 833.445 780.228 837.124 C 797.373 840.802 808.294 857.76 804.617 874.925 C 800.937 892.089 784.041 903.02 766.905 899.342 Z M 467.502 152.334 L 516.399 203.633 C 527.453 215.211 545.76 215.639 557.327 204.574 L 612.039 152.243 C 726.682 173.588 823.743 244.95 879.721 342.859 L 842.224 427.455 C 835.788 442.097 842.328 459.219 856.937 465.706 L 929.07 497.738 C 943.475 628.095 886.157 743.504 818.827 810.578 L 751.651 796.141 C 736.01 792.793 720.625 802.744 717.273 818.415 L 701.333 892.804 C 652.149 915.077 597.53 927.542 540.01 927.542 C 481.172 927.542 425.366 914.464 375.303 891.272 L 359.376 816.853 C 356.024 801.2 340.636 791.227 325.003 794.588 L 259.341 808.688 C 190.214 735.984 139.027 632.172 151.297 494.581 L 219.7 464.185 C 234.311 457.697 240.91 440.575 234.422 425.932 L 198.867 345.485 C 260.506 236.636 363.043 172.288 467.502 152.334 Z M 309.75 897.708 C 292.608 901.488 275.728 890.556 272.04 873.391 C 268.373 856.126 279.275 839.267 296.419 835.591 C 313.564 831.911 330.45 842.844 334.131 860.008 C 337.797 877.171 326.886 894.03 309.75 897.708 Z M 188.548 406.278 C 195.659 422.326 188.427 441.135 172.395 448.237 C 156.365 455.358 137.606 448.114 130.498 432.055 C 123.384 415.992 130.619 397.214 146.65 390.092 C 162.689 382.981 181.439 390.215 188.548 406.278 Z M 516.418 108.7 C 529.089 96.561 549.184 97.042 561.312 109.728 C 573.42 122.45 572.958 142.569 560.26 154.696 C 547.591 166.834 527.494 166.363 515.366 153.653 C 503.271 140.954 503.729 120.835 516.418 108.7 Z M 888.099 407.818 C 895.25 391.767 913.947 384.523 929.988 391.645 C 946.028 398.756 953.281 417.555 946.13 433.606 C 939.081 449.667 920.282 456.911 904.242 449.789 C 888.201 442.678 881.05 423.89 888.099 407.818 Z" style="fill:#fd9800"/><g><path fill="#FD9800" d="M189,891c-22.6-22.3-42.5-46.9-60.1-73.2c-38.9-58-64.4-121.4-76.5-190.1c-7.5-42.8-9.3-86-5.5-129.4 c9.1-102.6,46.2-193.9,112-273.1c74.5-89.7,169.3-146.5,283.6-170.4c45-9.4,90.4-12.3,136.1-8.6c121.6,9.9,226,57.9,313.2,143.2 c0.5,0.5,0.8,1,1.2,1.6c1.4,1.9-0.2,3.1-1.2,4.3c-1.2,1.4-2.5,2.6-3.8,3.9c-43.9,43.9-87.5,88.2-131.9,131.6 c-31,30.2-61.3,61.1-92.2,91.4c-1.8,1.7-3.3,3.9-6.3,3.5c-0.5-0.1-1-0.3-1.4-0.6c-12.1-11.7-24.3-23.2-37.3-34 c-32.1-26.8-66.8-49.7-104-68.8c-46.7-24-95.8-41-147.3-51.1c-23.2-4.6-46.6-7.7-70.3-9.1c-10.3-0.6-20.5-2-30.9-1.9 c-5.6,0.1-6.1,0.5-6.1,5.9c0,31.3,0,62.6-0.1,94c0,3.8,1.2,5.3,5.1,5.5c25.4,1.2,50.8,2.8,75.9,7.6c36.3,6.9,71.4,17.6,105.2,32.8 c36.5,16.5,70.3,37.3,101.2,62.7c11.6,9.5,22.9,19.3,33.3,30.1c0.3,0.4,0.4,0.9,0.4,1.4c-2,4.4-5.8,7.3-9.2,10.3 c-16,14.2-30.3,30-45.6,44.7c-1.5,1.5-2.8,3.4-5.1,3.9c-0.5,0-1-0.1-1.5-0.4c-13.1-11.8-26.2-23.6-40.4-34.1 c-50.3-37.2-106.4-60.2-168.3-69.2c-15-2.2-30.1-3.7-45.3-3.4c-5.3,0.1-5.7,0.4-5.7,5.7c0,31.1,0,62.3,0,93.4c0,5.5,0.6,6.1,6,6.1 c38.8,0.5,75.5,9.8,110.2,26.9c23.9,11.8,45.7,26.7,64.8,45.4c1.3,1.3,2.7,2.5,3.7,4.1c0.3,0.4,0.4,0.9,0.5,1.4 c-0.3,2-1.8,3.1-3.1,4.4c-12.9,13-25.7,26.1-38.9,38.7c-5.5,5.3-11.2,10.4-16.6,15.8c-0.5,0.1-1,0-1.5-0.2 c-10.5-9.4-22.2-16.3-36.2-18.9c-23.3-4.3-44.2,0.9-62.4,16.2c-17.9,15.2-26.7,34.9-26.2,58c0.4,17.9,7.6,33.9,19.7,47.4 c1,1.2,2.1,2.3,2,3.9c-0.2,0.6-0.5,1.3-0.9,1.7c-12.9,12.7-25.1,26.1-38.7,38.1c-6.1,5.4-11.6,11.4-17.4,17.1 c-10.2,10.2-20.4,20.5-30.7,30.6C193.2,889.9,192,892.6,189,891z"/><path d="M521.9,559.1c15.4-15.9,30.7-32,47.2-46.8c4.1-3.6,7.9-7.6,11.8-11.3c2.7-0.7,3.9,1.4,5.3,2.9 c29.9,31.5,55.5,65.9,76,104.3c18.2,34.2,31.9,70,40.9,107.6c6,25,9.9,50.3,11.5,76c0.5,8.2,0.9,16.3,0.8,24.4 c-0.1,4.2,1.7,5.4,5.7,5.4c31.7-0.1,63.3,0,95-0.1c5.4,0,5.8-0.3,5.7-5.7c-0.9-31.3-3.8-62.5-9.4-93.3 c-10.8-60.1-31.1-116.8-60.4-170.3c-19.7-35.9-43.3-69.2-70.2-100.1c-5.9-6.8-11.8-13.6-18.4-19.7c-1.7-1.6-3.6-3-3.7-5.7 c1.5-2.9,4-1.8,6.1-1.2c32,8.5,64.1,16.9,96.2,25.4c30.3,8,60.5,16.1,90.8,24.1c59,15.5,117.9,31.3,176.8,46.8c2.5,0.7,5.3,1,7.3,3 c0.1,14.8,1.1,29.7,0.1,44.5c-2.7,40.1-9.4,79.4-21.4,117.9c-9.6,31-22.2,60.6-37.3,89.2c-13.4,25.4-29.4,49.1-47,71.7 c-10.1,13-21.5,25-32.6,37.1c-10.2,11.2-21.4,21.1-32.6,31c-21.7,19-45.1,35.9-69.9,50.7c-33,19.7-67.8,35.6-104.5,47.1 c-21.7,6.8-43.7,12.3-66.1,15.9c-12.6,2.1-25.2,3.5-37.9,5c-25,3-50.1,2.1-75.1,1.6c-14.5-0.3-29-2.3-43.4-4.5 c-17.6-2.6-34.9-6-52.1-10.3c-1.7-0.4-3.3-1.3-4.9-1.9c-1.1-0.8-2-1.7-2.7-2.8c-24.6-41.5-49.2-83-73.8-124.5 c-16.3-27.5-32.5-55-48.9-82.4c-1.3-2.2-4.2-4.2-2.3-7.5c2.5-0.4,4,1.4,5.7,2.7c34.9,27.1,86.6,16.4,108.6-21.9 c14.3-25,12.7-61.3-8.2-83.9c-1.6-1.7-3.2-3.4-3.4-6c2.1-4.1,5.7-6.9,9-9.8c16.3-14.5,31-30.6,46.6-45.8c0.8-0.8,1.8-1.5,2.7-2.2 c2.5-0.1,3.8,1.8,5.3,3.3c20.8,21.1,37,45.4,49.5,72.2c12.7,27.3,20,56.1,23,86c0.6,6.3,1.1,12.6,1.3,18.9c0.1,3.7,1.1,5.4,5.2,5.4 c31.7-0.1,63.3-0.1,95,0c4.4,0,5.3-2,5.2-5.8c-0.1-25.8-3.6-51.1-9.2-76.2c-6.3-28.1-16-55.1-28.8-80.8 c-15.1-30.4-34.1-58.4-56.9-83.6c-3.6-4-7-8.1-10.8-11.8C522.9,562.2,521.6,561,521.9,559.1z" style="fill:#fd9800"/><path d="M1036.7,524.9c-9.8-1.6-19.3-4.6-28.9-7.2c-53.1-13.9-106.1-28-159.2-42c-38.8-10.3-77.6-20.5-116.3-30.9 c-22.7-6.1-45.5-12.2-68.2-18.3c-1.5-0.4-2.9-1-4.2,0.3c-1.6,0.3-2.4-0.1-1.8-1.9c2.3-0.1,3.3-2,4.7-3.4 c24.2-24.1,48-48.5,72.5-72.3C787.2,299,837.7,247.3,889,196.5c1.6-1.6,3.9-2.8,4-5.5c22.7,22.4,42.6,47.1,60.4,73.5 c38.7,57.8,64,121,76.3,189.5C1033.8,477.4,1036.3,501.1,1036.7,524.9z" style="fill:#fd9800"/><path d="M284,803.1c5.1,8.9,10.2,17.8,15.4,26.7c16.7,28.1,33.4,56.2,50.1,84.3c19.6,33,39.2,65.9,58.8,98.9 c1.4,2.3,2.4,4.7,3.6,7.1c-20.6-4.9-40.4-12-59.9-20c-61.1-25.1-114.9-61.2-161.9-107.5c-0.5-0.5-0.8-1-1.2-1.5 c2.2,0.1,3.2-1.6,4.4-2.9c7-6.9,13.8-13.9,20.8-20.8c21.7-21.4,43.5-42.9,65.2-64.3c0.8-0.8,1.8-1.5,2.7-2.2 C283.6,800.9,283.9,801.8,284,803.1z" style="fill:#fd9800"/><path d="M658.2,425c0.6,0.6,1.2,1.3,1.8,1.9c17.8,18.7,34.9,38,50.3,58.7c50.1,67.3,83.9,141.9,100.8,224.1 c7.3,35.6,10.9,71.7,11.9,108c0.1,4.1-0.9,5.3-5.1,5.3c-32.7-0.2-65.3-0.2-98,0c-4.5,0-5.8-1-5.9-5.7 c-1.7-111.9-39.6-210-112.6-294.6c-6.5-7.6-13.1-15-20.6-21.7c0-0.3,0-0.5-0.1-0.8c0.4-1.9,1.9-3.1,3.2-4.3 c22.6-22.7,45.3-45.3,68-68c1.4-1.4,2.5-3.7,5.3-3C657.6,424.9,657.9,424.9,658.2,425z" style="fill:#fefefe"/><path fill="#FEFEFE" d="M657.3,424.9c-1.5,1.3-3.1,2.5-4.5,3.9c-22.5,22.5-45,45-67.5,67.4c-1.4,1.4-3,2.6-4.5,3.9 c-21-20-43-38.8-67.1-55c-56.1-37.6-117.3-62-184.1-72.4c-21.8-3.4-43.7-5-65.6-5.4c-3.7-0.1-4.8-1-4.7-4.8 c0.1-32.8,0.2-65.6,0-98.5c0-4.4,1.5-5.2,5.5-5.1c52.8,1.4,104.7,8.5,155.4,23.8c90.2,27.1,168.6,74,235.7,140.1 C656.3,423.5,656.7,424.2,657.3,424.9z"/><path d="M521.9,559.1C540,578,556.8,598,571,620c28.1,43.4,46.7,90.5,55.1,141.6c3.1,18.9,4.9,37.9,5,57.1 c0,3.2-0.7,4.3-4.1,4.3c-33.3-0.1-66.7-0.1-100,0c-3.2,0-4.2-0.8-4.3-4.2c-1.3-61.5-21-116.3-59.9-164.1 c-5.5-6.7-11.1-13.3-17.7-19c0-0.3-0.1-0.6-0.1-0.8c0.3-2,1.9-3.1,3.2-4.3c22.8-22.8,45.6-45.6,68.4-68.4c1.3-1.3,2.4-2.8,4.3-3.2 C521.3,559,521.6,559.1,521.9,559.1z" style="fill:#fefefe"/><path fill="#FEFEFE" d="M521,559c-1,1.1-1.9,2.3-2.9,3.4c-23.2,23.2-46.4,46.4-69.6,69.6c-1.1,1.1-2.2,2-3.4,2.9 c-18.8-18.1-39.4-33.8-62.6-45.9c-36.8-19.3-76-29.6-117.7-30.1c-4.6-0.1-5.8-1.2-5.8-5.8c0.2-32.3,0.2-64.6,0-96.9 c0-4,0.7-5.4,5.1-5.3c93.3,1.8,174.6,34.1,244.3,96C512.8,550.7,517.3,554.5,521,559z"/><path d="M284,803.1c-0.6-0.7-1.2-1.5-1.8-2.2c-0.7-0.9-1.4-1.9-2.1-2.8c1.5-2.4,3.9-4.1,5.9-6.1 c31.4-31.5,62.9-62.9,94.4-94.3c1.7-1.7,2.9-4.2,6-3.9c0.2-0.1,0.4-0.1,0.6-0.2c16.5,17.1,24.1,37.3,22.3,61.2 c-2.5,32.2-31.3,62.3-63.4,66.3c-22.2,2.8-41.8-2.6-59.1-16.6C285.8,803.8,284.8,803.5,284,803.1z" style="fill:#fefefe"/><path fill="#FEFEFE" d="M386.2,693.7c-1.5,1.3-3,2.6-4.4,4c-32.2,32.2-64.4,64.4-96.7,96.6c-1.5,1.5-2.6,3.5-5.1,3.7 c-23.8-25.2-28.8-63.2-6.2-94.6c25.2-35,75-41.4,108.2-13.9C383.5,690.8,384.8,692.3,386.2,693.7z"/></g></svg>